PathFileType	4	(X/Y/Z)	C:\Users\86182\Documents\cortex\Trimmed_M3_H12.trc
DataRate	CameraRate	NumFrames	NumMarkers	Units	OrigDataRate	OrigDataStartFrame	OrigNumFrames
100.00	100.00	       113	2	mm	100.00	171	       851
Frame#	Time	gripper			box			
		X1	Y1	Z1	X2	Y2	Z2	

171	1.700	268.29224	172.57909	210.23584	268.43820	169.14328	74.40767	
172	1.710	268.25406	172.59061	210.65982	268.40417	169.16475	74.82595	
173	1.720	268.21481	172.59587	211.07990	268.38077	169.17554	75.23632	
174	1.730	268.17630	172.59363	211.49629	268.37039	169.17447	75.64224	
175	1.740	268.14166	172.58174	211.91090	268.37256	169.16241	76.05054	
176	1.750	268.11368	172.55959	212.32719	268.38586	169.14066	76.46548	
177	1.760	268.09436	172.52948	212.74867	268.40921	169.11105	76.88567	
178	1.770	268.08380	172.49603	213.17627	268.44055	169.07689	77.30711	
179	1.780	268.07913	172.46414	213.60825	268.47549	169.04289	77.72894	
180	1.790	268.07675	172.43689	214.04295	268.50815	169.01411	78.15427	
181	1.800	268.07465	172.41516	214.48013	268.53467	168.99377	78.58546	
182	1.810	268.07184	172.39920	214.91957	268.55539	168.98181	79.02060	
183	1.820	268.06702	172.38995	215.35938	268.57169	168.97684	79.45535	
184	1.830	268.05911	172.38832	215.79617	268.58188	168.97899	79.88651	
185	1.840	268.04852	172.39340	216.22696	268.58224	168.99016	80.31344	
186	1.850	268.03693	172.40224	216.65108	268.57175	169.01143	80.73698	
187	1.860	268.02567	172.41174	217.07037	268.55301	169.04095	81.15784	
188	1.870	268.01422	172.42081	217.48689	268.52817	169.07486	81.57577	
189	1.880	267.99988	172.43034	217.90085	268.49609	169.10970	81.99007	
190	1.890	267.98059	172.44099	218.31184	268.45529	169.14322	82.40101	
191	1.900	267.95822	172.45155	218.72154	268.40912	169.17250	82.81006	
192	1.910	267.93854	172.45976	219.13408	268.36624	169.19348	83.21928	
193	1.920	267.92682	172.46382	219.55299	268.33441	169.20366	83.63140	
194	1.930	267.92429	172.46306	219.97858	268.31531	169.20430	84.04988	
195	1.940	267.92874	172.45848	220.40855	268.30566	169.19942	84.47716	
196	1.950	267.93756	172.45245	220.84125	268.30338	169.19359	84.91209	
197	1.960	267.94952	172.44734	221.27737	268.30988	169.19034	85.35090	
198	1.970	267.96490	172.44434	221.71873	268.32593	169.19121	85.79103	
199	1.980	267.98386	172.44351	222.16534	268.34833	169.19614	86.23270	
200	1.990	268.00443	172.44522	222.61447	268.37231	169.20505	86.67612	
201	2.000	268.02328	172.45032	223.06253	268.39471	169.21846	87.11842	
202	2.010	268.03867	172.45848	223.50665	268.41336	169.23575	87.55531	
203	2.020	268.05121	172.46716	223.94447	268.42612	169.25450	87.98512	
204	2.030	268.06256	172.47293	224.37379	268.43140	169.27213	88.40950	
205	2.040	268.07339	172.47426	224.79364	268.42914	169.28693	88.83088	
206	2.050	268.08267	172.47328	225.20570	268.41992	169.29703	89.25017	
207	2.060	268.08917	172.47365	225.61403	268.40411	169.30045	89.66634	
208	2.070	268.09387	172.47658	226.02295	268.38187	169.29730	90.07874	
209	2.080	268.09906	172.48007	226.43579	268.35403	169.29102	90.48985	
210	2.090	268.10510	172.48166	226.85423	268.32242	169.28598	90.90466	
211	2.100	268.10977	172.48137	227.27835	268.29007	169.28500	91.32767	
212	2.110	268.11136	172.48198	227.70766	268.26007	169.28915	91.76068	
213	2.120	268.11063	172.48608	228.14252	268.23267	169.29935	92.20317	
214	2.130	268.10873	172.49422	228.58318	268.20529	169.31721	92.65372	
215	2.140	268.10571	172.50507	229.02805	268.17661	169.34399	93.11011	
216	2.150	268.10181	172.51694	229.47400	268.15067	169.37778	93.56766	
217	2.160	268.09805	172.52922	229.91840	268.13583	169.41173	94.01866	
218	2.170	268.09494	172.54303	230.35985	268.14166	169.43515	94.45317	
219	2.180	268.09244	172.55951	230.79749	268.17908	169.43600	94.85981	
220	2.190	268.09113	172.57776	231.22992	268.26263	169.40323	95.22691	
221	2.200	268.09097	172.59581	231.65567	268.40701	169.32921	95.54565	
222	2.210	268.09009	172.61324	232.07455	268.61618	169.21353	95.81545	
223	2.220	268.08652	172.63072	232.48845	268.87082	169.06779	96.05044	
224	2.230	268.08041	172.64735	232.90028	269.11813	168.92183	96.28529	
225	2.240	268.07330	172.66066	233.31190	269.28586	168.81747	96.56715	
226	2.250	268.06662	172.66927	233.72363	269.34238	168.77490	96.91963	
227	2.260	268.06168	172.67444	234.13602	269.33072	168.77211	97.32157	
228	2.270	268.06036	172.67854	234.55070	269.30850	168.77786	97.74266	
229	2.280	268.06503	172.68260	234.96918	269.27289	168.79491	98.18791	
230	2.290	268.07690	172.68582	235.39230	269.16559	168.85802	98.69252	
231	2.300	268.09485	172.68713	235.82182	268.95239	168.98837	99.27368	
232	2.310	268.11572	172.68738	236.25992	268.67801	169.16109	99.90054	
233	2.320	268.13638	172.68958	236.70740	268.42581	169.32808	100.52085	
234	2.330	268.15533	172.69659	237.16309	268.25861	169.45358	101.09554	
235	2.340	268.17242	172.70926	237.62474	268.21051	169.51984	101.60105	
236	2.350	268.18750	172.72707	238.08957	268.29752	169.51839	102.02245	
237	2.360	268.19977	172.74951	238.55435	268.51932	169.44629	102.35482	
238	2.370	268.20868	172.77583	239.01523	268.85471	169.31001	102.60887	
239	2.380	268.21405	172.80499	239.46802	269.25244	169.13368	102.81551	
240	2.390	268.21555	172.83601	239.90976	269.63959	168.95499	103.01701	
241	2.400	268.21298	172.86772	240.34036	269.97217	168.79596	103.23534	
242	2.410	268.20734	172.89844	240.76187	270.26273	168.64777	103.45985	
243	2.420	268.20010	172.92596	241.17653	270.51694	168.50734	103.69112	
244	2.430	268.19174	172.94875	241.58685	270.67068	168.41327	103.97883	
245	2.440	268.18176	172.96678	241.99680	270.64377	168.41499	104.38277	
246	2.450	268.17017	172.98117	242.41042	270.44571	168.51120	104.90224	
247	2.460	268.15891	172.99226	242.82895	270.17596	168.64774	105.47543	
248	2.470	268.15152	172.99881	243.25095	269.91611	168.77831	106.04902	
249	2.480	268.15076	172.99918	243.67500	269.67322	168.89879	106.61655	
250	2.490	268.15771	172.99333	244.10088	269.43973	169.01588	107.18401	
251	2.500	268.17221	172.98322	244.52864	269.24841	169.11494	107.73508	
252	2.510	268.19281	172.97112	244.95822	269.13177	169.17894	108.25139	
253	2.520	268.21634	172.95833	245.38916	269.06241	169.22041	108.74541	
254	2.530	268.23892	172.94568	245.82077	268.96652	169.27718	109.25488	
255	2.540	268.25769	172.93423	246.25299	268.80304	169.37117	109.80113	
256	2.550	268.27029	172.92508	246.68645	268.61237	169.48007	110.36068	
257	2.560	268.27399	172.91861	247.12062	268.47476	169.55856	110.88532	
258	2.570	268.26672	172.91417	247.55325	268.45380	169.57010	111.33231	
259	2.580	268.24875	172.91020	247.98216	268.58664	169.49352	111.67274	
260	2.590	268.22141	172.90553	248.40620	268.88641	169.32150	111.89607	
261	2.600	268.18597	172.90068	248.82495	269.33203	169.06636	112.01926	
262	2.610	268.14410	172.89749	249.23943	269.84894	168.77124	112.09568	
263	2.620	268.09796	172.89723	249.65231	270.30902	168.50977	112.20949	
264	2.630	268.05042	172.89938	250.06609	270.60159	168.34454	112.42899	
265	2.640	268.00504	172.90216	250.48190	270.73163	168.27145	112.74814	
266	2.650	267.96490	172.90454	250.90096	270.80396	168.23035	113.10120	
267	2.660	267.93198	172.90726	251.32465	270.89349	168.17932	113.44614	
268	2.670	267.90710	172.91121	251.75259	270.96835	168.13774	113.80991	
269	2.680	267.89038	172.91536	252.18271	270.95874	168.14639	114.23970	
270	2.690	267.88242	172.91664	252.61404	270.87369	168.20045	114.72742	
271	2.700	267.88379	172.91319	253.04779	270.79929	168.24963	115.21415	
272	2.710	267.89313	172.90671	253.48491	270.78217	168.26608	115.66778	
273	2.720	267.90720	172.90062	253.92406	270.76337	168.28372	116.12479	
274	2.730	267.92340	172.89680	254.36234	270.65274	168.35464	116.64136	
275	2.740	267.93988	172.89497	254.79776	270.44928	168.47832	117.21635	
276	2.750	267.95432	172.89452	255.23126	270.24728	168.59929	117.78789	
277	2.760	267.96445	172.89592	255.66591	270.12766	168.67207	118.30284	
278	2.770	267.96814	172.90076	256.10315	270.09650	168.69565	118.75669	
279	2.780	267.96301	172.90991	256.54062	270.14056	168.67882	119.15976	
280	2.790	267.94803	172.92256	256.97522	270.27682	168.61101	119.50458	
281	2.800	267.92599	172.93675	257.40588	270.49832	168.49500	119.79527	
282	2.810	267.90219	172.95027	257.83295	270.71692	168.38062	120.08231	
283	2.820	267.88025	172.96103	258.25644	270.82910	168.32747	120.42697	
